<svg width="565" height="162" viewBox="0 0 565 162" fill="none" xmlns="http://www.w3.org/2000/svg">
<path d="M31.1392 5.90909V35H25.8693V5.90909H31.1392ZM40.1607 22.2159V35H35.0186V13.1818H39.9334V16.8892H40.1891C40.691 15.6676 41.4911 14.697 42.5896 13.9773C43.6976 13.2576 45.066 12.8977 46.6947 12.8977C48.2004 12.8977 49.512 13.2197 50.6294 13.8636C51.7563 14.5076 52.6275 15.4403 53.243 16.6619C53.868 17.8835 54.1758 19.3655 54.1663 21.108V35H49.0243V21.9034C49.0243 20.4451 48.6455 19.304 47.8879 18.4801C47.1398 17.6562 46.1029 17.2443 44.7771 17.2443C43.8775 17.2443 43.0773 17.4432 42.3766 17.8409C41.6853 18.2292 41.1408 18.7926 40.743 19.5312C40.3548 20.2699 40.1607 21.1648 40.1607 22.2159ZM68.6885 13.1818V17.1591H56.1459V13.1818H68.6885ZM59.2425 7.95455H64.3845V28.4375C64.3845 29.1288 64.4887 29.6591 64.697 30.0284C64.9148 30.3883 65.1989 30.6345 65.5493 30.767C65.8997 30.8996 66.2879 30.9659 66.7141 30.9659C67.036 30.9659 67.3296 30.9422 67.5947 30.8949C67.8694 30.8475 68.0777 30.8049 68.2197 30.767L69.0862 34.7869C68.8116 34.8816 68.4186 34.9858 67.9072 35.0994C67.4054 35.2131 66.7898 35.2794 66.0607 35.2983C64.7728 35.3362 63.6127 35.142 62.5805 34.7159C61.5483 34.2803 60.7292 33.608 60.1232 32.6989C59.5266 31.7898 59.233 30.6534 59.2425 29.2898V7.95455ZM71.3889 35V13.1818H76.3747V16.8182H76.602C76.9997 15.5587 77.6815 14.5881 78.6474 13.9062C79.6228 13.215 80.7355 12.8693 81.9855 12.8693C82.2696 12.8693 82.5868 12.8835 82.9372 12.9119C83.2971 12.9309 83.5954 12.964 83.8321 13.0114V17.7415C83.6143 17.6657 83.2687 17.5994 82.7952 17.5426C82.3312 17.4763 81.8813 17.4432 81.4457 17.4432C80.5082 17.4432 79.6654 17.6468 78.9173 18.054C78.1787 18.4517 77.5963 19.0057 77.1702 19.7159C76.744 20.4261 76.531 21.2453 76.531 22.1733V35H71.3889ZM94.2669 35.4261C92.1362 35.4261 90.2896 34.9574 88.7271 34.0199C87.1646 33.0824 85.9525 31.7708 85.0908 30.0852C84.2385 28.3996 83.8124 26.4299 83.8124 24.1761C83.8124 21.9223 84.2385 19.9479 85.0908 18.2528C85.9525 16.5578 87.1646 15.2415 88.7271 14.304C90.2896 13.3665 92.1362 12.8977 94.2669 12.8977C96.3976 12.8977 98.2442 13.3665 99.8067 14.304C101.369 15.2415 102.577 16.5578 103.429 18.2528C104.291 19.9479 104.721 21.9223 104.721 24.1761C104.721 26.4299 104.291 28.3996 103.429 30.0852C102.577 31.7708 101.369 33.0824 99.8067 34.0199C98.2442 34.9574 96.3976 35.4261 94.2669 35.4261ZM94.2953 31.3068C95.4506 31.3068 96.4165 30.9896 97.193 30.3551C97.9696 29.7112 98.5472 28.8494 98.926 27.7699C99.3143 26.6903 99.5084 25.4877 99.5084 24.1619C99.5084 22.8267 99.3143 21.6193 98.926 20.5398C98.5472 19.4508 97.9696 18.5843 97.193 17.9403C96.4165 17.2964 95.4506 16.9744 94.2953 16.9744C93.1116 16.9744 92.1268 17.2964 91.3408 17.9403C90.5643 18.5843 89.9819 19.4508 89.5936 20.5398C89.2148 21.6193 89.0254 22.8267 89.0254 24.1619C89.0254 25.4877 89.2148 26.6903 89.5936 27.7699C89.9819 28.8494 90.5643 29.7112 91.3408 30.3551C92.1268 30.9896 93.1116 31.3068 94.2953 31.3068ZM115.582 35.3835C113.868 35.3835 112.334 34.9432 110.98 34.0625C109.626 33.1818 108.556 31.9034 107.77 30.2273C106.984 28.5511 106.591 26.5152 106.591 24.1193C106.591 21.6951 106.989 19.6496 107.784 17.983C108.589 16.3068 109.673 15.0426 111.037 14.1903C112.401 13.3286 113.92 12.8977 115.597 12.8977C116.875 12.8977 117.926 13.1155 118.75 13.5511C119.574 13.9773 120.227 14.4934 120.71 15.0994C121.193 15.696 121.567 16.2595 121.832 16.7898H122.045V5.90909H127.202V35H122.145V31.5625H121.832C121.567 32.0928 121.184 32.6562 120.682 33.2528C120.18 33.84 119.517 34.3419 118.693 34.7585C117.869 35.1752 116.832 35.3835 115.582 35.3835ZM117.017 31.1648C118.106 31.1648 119.034 30.8712 119.801 30.2841C120.568 29.6875 121.151 28.8589 121.548 27.7983C121.946 26.7377 122.145 25.5019 122.145 24.0909C122.145 22.6799 121.946 21.4536 121.548 20.4119C121.16 19.3703 120.582 18.5606 119.815 17.983C119.058 17.4053 118.125 17.1165 117.017 17.1165C115.871 17.1165 114.915 17.4148 114.148 18.0114C113.381 18.608 112.803 19.4318 112.415 20.483C112.027 21.5341 111.832 22.7367 111.832 24.0909C111.832 25.4545 112.027 26.6714 112.415 27.7415C112.813 28.8021 113.395 29.6402 114.162 30.2557C114.938 30.8617 115.89 31.1648 117.017 31.1648ZM144.987 25.8239V13.1818H150.129V35H145.144V31.1222H144.916C144.424 32.3437 143.614 33.3428 142.487 34.1193C141.37 34.8958 139.992 35.2841 138.354 35.2841C136.924 35.2841 135.66 34.9669 134.561 34.3324C133.472 33.6884 132.62 32.7557 132.004 31.5341C131.389 30.303 131.081 28.8163 131.081 27.0739V13.1818H136.223V26.2784C136.223 27.661 136.602 28.7595 137.36 29.5739C138.117 30.3883 139.111 30.7955 140.342 30.7955C141.1 30.7955 141.834 30.6108 142.544 30.2415C143.254 29.8722 143.837 29.3229 144.291 28.5938C144.755 27.8551 144.987 26.9318 144.987 25.8239ZM163.334 35.4261C161.156 35.4261 159.286 34.9479 157.723 33.9915C156.17 33.035 154.972 31.714 154.13 30.0284C153.296 28.3333 152.88 26.3826 152.88 24.1761C152.88 21.9602 153.306 20.0047 154.158 18.3097C155.01 16.6051 156.213 15.2794 157.766 14.3324C159.328 13.3759 161.175 12.8977 163.306 12.8977C165.077 12.8977 166.644 13.2244 168.007 13.8778C169.38 14.5218 170.474 15.4356 171.289 16.6193C172.103 17.7936 172.567 19.1667 172.681 20.7386H167.766C167.567 19.6875 167.094 18.8116 166.345 18.1108C165.607 17.4006 164.617 17.0455 163.377 17.0455C162.326 17.0455 161.402 17.3295 160.607 17.8977C159.811 18.4564 159.191 19.2614 158.746 20.3125C158.31 21.3636 158.093 22.6231 158.093 24.0909C158.093 25.5777 158.31 26.8561 158.746 27.9261C159.182 28.9867 159.792 29.8059 160.578 30.3835C161.374 30.9517 162.307 31.2358 163.377 31.2358C164.134 31.2358 164.811 31.0937 165.408 30.8097C166.014 30.5161 166.521 30.0947 166.928 29.5455C167.335 28.9962 167.614 28.3286 167.766 27.5426H172.681C172.558 29.0862 172.103 30.4545 171.317 31.6477C170.531 32.8314 169.461 33.7595 168.107 34.4318C166.753 35.0947 165.162 35.4261 163.334 35.4261ZM175.303 35V13.1818H180.445V35H175.303ZM177.888 10.0852C177.074 10.0852 176.373 9.81534 175.786 9.27557C175.199 8.72632 174.905 8.06818 174.905 7.30114C174.905 6.52462 175.199 5.86648 175.786 5.3267C176.373 4.77746 177.074 4.50284 177.888 4.50284C178.712 4.50284 179.413 4.77746 179.99 5.3267C180.578 5.86648 180.871 6.52462 180.871 7.30114C180.871 8.06818 180.578 8.72632 179.99 9.27557C179.413 9.81534 178.712 10.0852 177.888 10.0852ZM189.275 22.2159V35H184.133V13.1818H189.047V16.8892H189.303C189.805 15.6676 190.605 14.697 191.704 13.9773C192.812 13.2576 194.18 12.8977 195.809 12.8977C197.314 12.8977 198.626 13.2197 199.743 13.8636C200.87 14.5076 201.742 15.4403 202.357 16.6619C202.982 17.8835 203.29 19.3655 203.28 21.108V35H198.138V21.9034C198.138 20.4451 197.76 19.304 197.002 18.4801C196.254 17.6562 195.217 17.2443 193.891 17.2443C192.992 17.2443 192.191 17.4432 191.491 17.8409C190.799 18.2292 190.255 18.7926 189.857 19.5312C189.469 20.2699 189.275 21.1648 189.275 22.2159ZM216.396 43.6364C214.55 43.6364 212.964 43.3854 211.638 42.8835C210.312 42.3911 209.247 41.7282 208.442 40.8949C207.637 40.0616 207.078 39.1383 206.766 38.125L211.396 37.0028C211.605 37.429 211.908 37.8504 212.305 38.267C212.703 38.6932 213.238 39.0436 213.911 39.3182C214.592 39.6023 215.449 39.7443 216.482 39.7443C217.94 39.7443 219.147 39.3892 220.104 38.679C221.06 37.9782 221.538 36.8229 221.538 35.2131V31.0795H221.283C221.018 31.6098 220.629 32.1544 220.118 32.7131C219.616 33.2718 218.948 33.7405 218.115 34.1193C217.291 34.4981 216.254 34.6875 215.004 34.6875C213.328 34.6875 211.808 34.2945 210.445 33.5085C209.09 32.7131 208.011 31.5294 207.206 29.9574C206.411 28.3759 206.013 26.3968 206.013 24.0199C206.013 21.6241 206.411 19.6023 207.206 17.9545C208.011 16.2973 209.095 15.0426 210.459 14.1903C211.822 13.3286 213.342 12.8977 215.018 12.8977C216.297 12.8977 217.348 13.1155 218.172 13.5511C219.005 13.9773 219.668 14.4934 220.161 15.0994C220.653 15.696 221.027 16.2595 221.283 16.7898H221.567V13.1818H226.638V35.3551C226.638 37.2206 226.193 38.7642 225.303 39.9858C224.412 41.2074 223.196 42.1212 221.652 42.7273C220.108 43.3333 218.357 43.6364 216.396 43.6364ZM216.439 30.6534C217.528 30.6534 218.456 30.3883 219.223 29.858C219.99 29.3277 220.572 28.5653 220.97 27.571C221.368 26.5767 221.567 25.3835 221.567 23.9915C221.567 22.6184 221.368 21.4157 220.97 20.3835C220.582 19.3513 220.004 18.5511 219.237 17.983C218.48 17.4053 217.547 17.1165 216.439 17.1165C215.293 17.1165 214.337 17.4148 213.57 18.0114C212.803 18.608 212.225 19.4271 211.837 20.4688C211.448 21.5009 211.254 22.6752 211.254 23.9915C211.254 25.3267 211.448 26.4962 211.837 27.5C212.234 28.4943 212.817 29.2708 213.584 29.8295C214.36 30.3788 215.312 30.6534 216.439 30.6534Z" fill="white"/>
<g filter="url(#filter0_d_341_1965)">
<path d="M25.3466 56.5767V49.5455H74.4375V56.5767H53.8551V115H45.929V56.5767H25.3466ZM80.3703 115V49.5455H88.2964V78.6932H123.197V49.5455H131.123V115H123.197V85.7244H88.2964V115H80.3703ZM140.691 115V49.5455H180.194V56.5767H148.618V78.6932H178.149V85.7244H148.618V107.969H180.706V115H140.691ZM242.988 65.9091C242.605 62.6705 241.049 60.1562 238.322 58.3665C235.595 56.5767 232.25 55.6818 228.287 55.6818C225.389 55.6818 222.853 56.1506 220.68 57.0881C218.528 58.0256 216.845 59.3146 215.63 60.9553C214.437 62.5959 213.841 64.4602 213.841 66.5483C213.841 68.2955 214.256 69.7976 215.087 71.0547C215.939 72.2905 217.026 73.3239 218.347 74.1548C219.668 74.9645 221.053 75.6357 222.502 76.1683C223.951 76.6797 225.282 77.0952 226.497 77.4148L233.145 79.2045C234.849 79.652 236.745 80.2699 238.834 81.0582C240.943 81.8466 242.956 82.9226 244.874 84.2862C246.813 85.6285 248.411 87.3544 249.668 89.4638C250.925 91.5732 251.554 94.1619 251.554 97.2301C251.554 100.767 250.627 103.963 248.773 106.818C246.941 109.673 244.256 111.942 240.719 113.626C237.204 115.309 232.932 116.151 227.903 116.151C223.216 116.151 219.157 115.394 215.726 113.881C212.317 112.369 209.633 110.259 207.672 107.553C205.733 104.847 204.636 101.705 204.38 98.125H212.562C212.775 100.597 213.606 102.642 215.055 104.261C216.525 105.859 218.379 107.053 220.616 107.841C222.875 108.608 225.304 108.991 227.903 108.991C230.929 108.991 233.645 108.501 236.053 107.521C238.461 106.52 240.368 105.135 241.774 103.366C243.18 101.577 243.883 99.4886 243.883 97.1023C243.883 94.929 243.276 93.1605 242.062 91.7969C240.847 90.4332 239.249 89.3253 237.268 88.473C235.286 87.6207 233.145 86.875 230.844 86.2358L222.79 83.9347C217.676 82.4645 213.628 80.3658 210.645 77.6385C207.662 74.9112 206.17 71.3423 206.17 66.9318C206.17 63.267 207.161 60.071 209.143 57.3438C211.145 54.5952 213.83 52.4645 217.196 50.9517C220.584 49.4176 224.366 48.6506 228.542 48.6506C232.761 48.6506 236.511 49.407 239.792 50.9197C243.074 52.4112 245.673 54.4567 247.591 57.0561C249.53 59.6555 250.552 62.6065 250.659 65.9091H242.988ZM301.24 49.5455H309.166V92.8835C309.166 97.358 308.112 101.353 306.002 104.869C303.914 108.363 300.963 111.122 297.149 113.146C293.335 115.149 288.861 116.151 283.726 116.151C278.591 116.151 274.116 115.149 270.303 113.146C266.489 111.122 263.527 108.363 261.418 104.869C259.33 101.353 258.286 97.358 258.286 92.8835V49.5455H266.212V92.2443C266.212 95.4403 266.915 98.2848 268.321 100.778C269.727 103.249 271.73 105.199 274.33 106.626C276.95 108.033 280.082 108.736 283.726 108.736C287.369 108.736 290.501 108.033 293.122 106.626C295.743 105.199 297.746 103.249 299.131 100.778C300.537 98.2848 301.24 95.4403 301.24 92.2443V49.5455ZM370.598 49.5455V115H362.927L327.26 63.608H326.621V115H318.695V49.5455H326.365L362.16 101.065H362.8V49.5455H370.598ZM432.062 49.5455V115H424.391L388.724 63.608H388.084V115H380.158V49.5455H387.829L423.624 101.065H424.263V49.5455H432.062ZM435.997 49.5455H445.074L463.227 80.0994H463.994L482.147 49.5455H491.224L467.574 88.0256V115H459.647V88.0256L435.997 49.5455ZM530.971 65.9091C530.587 62.6705 529.032 60.1562 526.305 58.3665C523.577 56.5767 520.232 55.6818 516.269 55.6818C513.371 55.6818 510.836 56.1506 508.663 57.0881C506.511 58.0256 504.827 59.3146 503.613 60.9553C502.42 62.5959 501.823 64.4602 501.823 66.5483C501.823 68.2955 502.239 69.7976 503.07 71.0547C503.922 72.2905 505.008 73.3239 506.329 74.1548C507.65 74.9645 509.035 75.6357 510.484 76.1683C511.933 76.6797 513.265 77.0952 514.479 77.4148L521.127 79.2045C522.832 79.652 524.728 80.2699 526.816 81.0582C528.925 81.8466 530.939 82.9226 532.856 84.2862C534.795 85.6285 536.393 87.3544 537.65 89.4638C538.908 91.5732 539.536 94.1619 539.536 97.2301C539.536 100.767 538.609 103.963 536.756 106.818C534.923 109.673 532.239 111.942 528.702 113.626C525.186 115.309 520.914 116.151 515.886 116.151C511.198 116.151 507.139 115.394 503.709 113.881C500.3 112.369 497.615 110.259 495.655 107.553C493.716 104.847 492.619 101.705 492.363 98.125H500.545C500.758 100.597 501.589 102.642 503.038 104.261C504.508 105.859 506.361 107.053 508.599 107.841C510.857 108.608 513.286 108.991 515.886 108.991C518.911 108.991 521.628 108.501 524.035 107.521C526.443 106.52 528.35 105.135 529.756 103.366C531.163 101.577 531.866 99.4886 531.866 97.1023C531.866 94.929 531.258 93.1605 530.044 91.7969C528.829 90.4332 527.231 89.3253 525.25 88.473C523.268 87.6207 521.127 86.875 518.826 86.2358L510.772 83.9347C505.658 82.4645 501.61 80.3658 498.627 77.6385C495.644 74.9112 494.153 71.3423 494.153 66.9318C494.153 63.267 495.143 60.071 497.125 57.3438C499.128 54.5952 501.812 52.4645 505.179 50.9517C508.567 49.4176 512.349 48.6506 516.525 48.6506C520.744 48.6506 524.494 49.407 527.775 50.9197C531.056 52.4112 533.655 54.4567 535.573 57.0561C537.512 59.6555 538.535 62.6065 538.641 65.9091H530.971Z" fill="#F8E8C1"/>
</g>
<defs>
<filter id="filter0_d_341_1965" x="0.0805492" y="43.5976" width="564.72" height="118.03" filterUnits="userSpaceOnUse" color-interpolation-filters="sRGB">
<feFlood flood-opacity="0" result="BackgroundImageFix"/>
<feColorMatrix in="SourceAlpha" type="matrix" values="0 0 0 0 0 0 0 0 0 0 0 0 0 0 0 0 0 0 127 0" result="hardAlpha"/>
<feOffset dy="20.2121"/>
<feGaussianBlur stdDeviation="12.6326"/>
<feComposite in2="hardAlpha" operator="out"/>
<feColorMatrix type="matrix" values="0 0 0 0 0 0 0 0 0 0 0 0 0 0 0 0 0 0 0.4 0"/>
<feBlend mode="normal" in2="BackgroundImageFix" result="effect1_dropShadow_341_1965"/>
<feBlend mode="normal" in="SourceGraphic" in2="effect1_dropShadow_341_1965" result="shape"/>
</filter>
</defs>
</svg>
