<svg width="622" height="600" viewBox="0 0 622 600" fill="none" xmlns="http://www.w3.org/2000/svg">
    <circle cx="304" cy="300" r="300" fill="url(#paint0_linear_92_276)" />
    <path
        d="M1.92 173.984C1.92 170.848 2.784 168.16 4.512 165.92C6.304 163.616 8.8 161.856 12 160.64C15.264 159.424 19.008 158.816 23.232 158.816H53.088C57.312 158.816 61.024 159.424 64.224 160.64C67.424 161.856 69.92 163.616 71.712 165.92C73.504 168.16 74.4 170.848 74.4 173.984V221.216C74.4 224.352 73.504 227.072 71.712 229.376C69.92 231.616 67.424 233.344 64.224 234.56C61.024 235.776 57.312 236.384 53.088 236.384H23.232C19.008 236.384 15.264 235.776 12 234.56C8.8 233.344 6.304 231.616 4.512 229.376C2.784 227.072 1.92 224.352 1.92 221.216V173.984ZM55.104 225.728C57.28 225.728 59.264 225.184 61.056 224.096C62.848 223.008 64.288 221.568 65.376 219.776C66.464 217.92 67.008 215.904 67.008 213.728V198.944C67.008 196.832 66.464 194.88 65.376 193.088C64.288 191.232 62.816 189.792 60.96 188.768C59.168 187.68 57.216 187.136 55.104 187.136H21.216C19.104 187.136 17.12 187.68 15.264 188.768C13.408 189.792 11.936 191.232 10.848 193.088C9.824 194.88 9.312 196.832 9.312 198.944V213.728C9.312 215.904 9.824 217.92 10.848 219.776C11.936 221.568 13.376 223.008 15.168 224.096C17.024 225.184 19.04 225.728 21.216 225.728H55.104ZM77.4825 159.2H95.5305L85.4505 174.752H87.2745L88.1385 173.408C91.3385 168.864 95.4025 165.216 100.331 162.464C105.323 159.648 111.179 158.24 117.899 158.24C124.107 158.24 129.867 159.776 135.179 162.848C140.491 165.856 144.683 170.048 147.755 175.424C150.891 180.736 152.459 186.656 152.459 193.184V236H105.035V233.024C106.827 231.296 108.395 229.44 109.739 227.456C111.083 225.472 112.171 223.072 113.003 220.256C113.835 217.376 114.251 213.984 114.251 210.08C114.251 207.392 113.579 204.928 112.235 202.688C110.891 200.384 109.067 198.592 106.763 197.312C104.459 195.968 101.995 195.296 99.3705 195.296C96.6825 195.296 94.1865 195.968 91.8825 197.312C89.6425 198.592 87.8505 200.384 86.5065 202.688C85.1625 204.928 84.4905 207.392 84.4905 210.08C84.4905 213.92 84.9385 217.312 85.8345 220.256C86.7305 223.2 87.8185 225.664 89.0985 227.648C90.4425 229.568 91.9785 231.36 93.7065 233.024V236H77.4825V159.2ZM156.139 159.2H267.499V195.68H233.611C233.291 192.032 232.139 188.672 230.155 185.6C228.171 182.528 225.579 180.096 222.379 178.304C219.243 176.512 215.755 175.616 211.915 175.616C207.947 175.616 204.267 176.608 200.875 178.592C197.547 180.512 194.891 183.168 192.907 186.56C190.987 189.888 190.027 193.536 190.027 197.504C190.027 201.472 190.987 205.152 192.907 208.544C194.891 211.872 197.547 214.496 200.875 216.416C204.267 218.336 207.947 219.296 211.915 219.296C215.883 219.296 219.467 218.368 222.667 216.512C225.931 214.656 228.523 212.192 230.443 209.12C232.363 206.048 233.419 202.816 233.611 199.424H267.499V236H156.139V159.2ZM270.608 159.2H300.752C302.224 159.2 303.44 159.584 304.4 160.352C305.36 161.12 305.936 162.144 306.128 163.424C306.32 164.64 306.032 165.952 305.264 167.36L278.096 219.104L279.92 219.872C282.096 215.84 284.336 211.584 286.64 207.104L289.616 201.44C291.536 197.216 294.064 193.824 297.2 191.264C300.4 188.64 304.688 187.328 310.064 187.328L359.408 187.424C363.248 187.424 366.799 188.32 370.063 190.112C373.392 191.84 376.016 194.368 377.936 197.696C379.92 201.024 380.912 204.896 380.912 209.312L380.816 236H331.184V211.232C331.184 209.952 331.632 208.864 332.528 207.968C333.424 207.072 334.512 206.624 335.792 206.624H368.144V204.704H296.528V206.624H323.984C325.264 206.624 326.352 207.072 327.248 207.968C328.144 208.864 328.592 209.952 328.592 211.232V236H270.608V159.2ZM395.384 236.576C393.208 236.576 391.224 236.064 389.432 235.04C387.64 233.952 386.2 232.544 385.112 230.816C384.088 229.024 383.576 227.04 383.576 224.864V214.304C383.576 210.208 384.536 206.464 386.456 203.072C388.44 199.68 391.128 196.992 394.52 195.008C397.976 193.024 401.752 192.032 405.848 192.032H430.136C431.992 192.032 433.56 191.52 434.84 190.496C436.12 189.472 436.984 188.192 437.432 186.656C437.88 185.12 437.912 183.648 437.528 182.24C437.208 180.768 436.504 179.584 435.416 178.688C434.392 177.792 433.144 177.216 431.672 176.96C430.2 176.64 428.696 176.704 427.16 177.152L405.176 182.816V159.2H427.736C429.336 159.2 430.776 159.552 432.056 160.256C433.336 160.96 434.36 162.08 435.128 163.616L467.768 228.32C468.536 229.792 468.792 231.136 468.536 232.352C468.344 233.504 467.8 234.4 466.904 235.04C466.008 235.68 465.08 236 464.12 236H440.216C438.744 236 437.528 235.488 436.568 234.464C435.608 233.44 435.352 232.16 435.8 230.624L438.584 222.56L439.544 219.68C440.696 216.16 441.528 213.376 442.04 211.328C442.552 209.28 442.808 207.232 442.808 205.184C442.808 203.264 442.2 201.664 440.984 200.384C439.768 199.04 438.136 198.368 436.088 198.368C434.232 198.368 432.632 199.04 431.288 200.384C429.944 201.728 429.272 203.328 429.272 205.184V224.864C429.272 226.976 428.728 228.928 427.64 230.72C426.616 232.512 425.208 233.952 423.416 235.04C421.624 236.064 419.672 236.576 417.56 236.576H395.384ZM406.712 226.016C408.888 226.016 410.872 225.504 412.664 224.48C414.456 223.456 415.864 222.048 416.888 220.256C417.976 218.464 418.52 216.448 418.52 214.208C418.52 212.032 417.976 210.048 416.888 208.256C415.864 206.4 414.456 204.96 412.664 203.936C410.872 202.912 408.888 202.4 406.712 202.4C404.536 202.4 402.52 202.912 400.664 203.936C398.872 204.96 397.432 206.4 396.344 208.256C395.32 210.048 394.808 212.032 394.808 214.208C394.808 216.448 395.32 218.464 396.344 220.256C397.432 222.048 398.872 223.456 400.664 224.48C402.456 225.504 404.472 226.016 406.712 226.016ZM511.274 184.736C513.578 184.736 515.69 184.16 517.61 183.008C519.53 181.856 521.034 180.32 522.122 178.4C523.274 176.48 523.85 174.368 523.85 172.064V170.912C523.85 168.608 523.274 166.496 522.122 164.576C521.034 162.656 519.53 161.152 517.61 160.064C515.69 158.912 513.578 158.336 511.274 158.336H498.026C495.722 158.336 493.61 158.912 491.69 160.064C489.77 161.152 488.234 162.656 487.082 164.576C485.93 166.496 485.354 168.608 485.354 170.912V172.064C485.354 174.368 485.93 176.48 487.082 178.4C488.234 180.32 489.77 181.856 491.69 183.008C493.674 184.16 495.818 184.736 498.122 184.736H511.274ZM488.33 193.568C489.802 193.568 490.986 193.12 491.882 192.224C492.842 191.328 493.322 190.112 493.322 188.576V186.944H516.362V188.576C516.362 190.048 516.842 191.264 517.802 192.224C518.762 193.12 519.946 193.568 521.354 193.568H529.994V236H506.282V194.336H504.074V211.712C504.074 218.368 503.306 223.488 501.77 227.072C500.234 230.592 497.994 232.96 495.05 234.176C492.17 235.392 488.266 236 483.338 236H470.666V193.568H488.33ZM533.67 159.2H551.718L541.638 174.752H543.462L544.326 173.408C547.526 168.864 551.59 165.216 556.518 162.464C561.51 159.648 567.366 158.24 574.086 158.24C580.294 158.24 586.054 159.776 591.366 162.848C596.678 165.856 600.87 170.048 603.942 175.424C607.078 180.736 608.646 186.656 608.646 193.184V236H561.222V233.024C563.014 231.296 564.582 229.44 565.926 227.456C567.27 225.472 568.358 223.072 569.19 220.256C570.022 217.376 570.438 213.984 570.438 210.08C570.438 207.392 569.766 204.928 568.422 202.688C567.078 200.384 565.254 198.592 562.95 197.312C560.646 195.968 558.182 195.296 555.558 195.296C552.87 195.296 550.374 195.968 548.07 197.312C545.83 198.592 544.038 200.384 542.694 202.688C541.35 204.928 540.678 207.392 540.678 210.08C540.678 213.92 541.126 217.312 542.022 220.256C542.918 223.2 544.006 225.664 545.286 227.648C546.63 229.568 548.166 231.36 549.894 233.024V236H533.67V159.2Z"
        fill="black" style="mix-blend-mode:overlay" />
    <path
        d="M49.12 272.84V282.44H39.52V272.84H49.12ZM104.416 263.24V272.84H49.12V263.24H104.416ZM39.52 282.44V297.32H29.92V282.44H39.52ZM49.12 297.32V306.92H39.52V297.32H49.12ZM39.52 306.92V321.8H29.92V306.92H39.52ZM49.12 321.8V331.4H39.52V321.8H49.12ZM104.416 331.4V341H49.12V331.4H104.416ZM101.248 306.92V315.56H49.12V306.92H101.248ZM104.416 331.4V321.8H114.016V331.4H104.416ZM114.016 321.8V306.92H123.616V321.8H114.016ZM104.416 306.92V297.32H114.016V306.92H104.416ZM114.016 297.32V282.44H123.616V297.32H114.016ZM104.416 282.44V272.84H114.016V282.44H104.416ZM52.384 297.32V288.68H104.416V297.32H52.384ZM135.009 341.384C133.409 341.384 132.001 341.032 130.785 340.328C129.633 339.56 128.737 338.568 128.097 337.352C127.521 336.072 127.233 334.728 127.233 333.32V264.2H182.817V312.392C182.817 315.208 183.489 317.832 184.833 320.264C186.241 322.632 188.129 324.52 190.497 325.928C192.929 327.336 195.585 328.04 198.465 328.04C201.281 328.04 203.873 327.336 206.241 325.928C208.673 324.52 210.561 322.632 211.905 320.264C213.313 317.832 214.017 315.208 214.017 312.392V268.424C214.017 266.888 214.401 265.736 215.169 264.968C216.001 264.2 216.993 263.816 218.145 263.816H224.673C225.505 263.816 226.209 264.008 226.785 264.392C227.425 264.776 228.001 265.32 228.513 266.024C229.025 266.664 229.633 267.624 230.337 268.904L269.121 337.064C269.505 337.768 269.697 338.44 269.697 339.08C269.761 339.656 269.633 340.136 269.313 340.52C268.993 340.84 268.513 341 267.873 341H225.729L225.825 286.376C225.825 285.736 225.601 285.224 225.153 284.84C224.769 284.456 224.289 284.264 223.713 284.264H221.889C221.121 284.264 220.545 284.488 220.161 284.936C219.841 285.32 219.681 285.8 219.681 286.376V333.32C219.681 335.752 219.137 337.704 218.049 339.176C217.025 340.648 215.105 341.384 212.289 341.384H135.009ZM273.576 272.552C273.576 270.952 273.96 269.48 274.728 268.136C275.56 266.728 276.648 265.64 277.992 264.872C279.4 264.04 280.904 263.624 282.504 263.624H308.424C310.024 263.624 311.496 264.04 312.84 264.872C314.248 265.64 315.336 266.728 316.104 268.136C316.936 269.48 317.352 270.952 317.352 272.552V319.208C317.352 319.656 317.544 320.072 317.928 320.456C318.312 320.84 318.76 321.032 319.272 321.032H320.616C321.064 321.032 321.48 320.84 321.864 320.456C322.248 320.072 322.44 319.656 322.44 319.208V272.552C322.44 270.952 322.824 269.48 323.592 268.136C324.424 266.728 325.512 265.64 326.856 264.872C328.264 264.04 329.8 263.624 331.464 263.624H357.288C358.888 263.624 360.36 264.04 361.704 264.872C363.112 265.64 364.2 266.728 364.968 268.136C365.8 269.48 366.216 270.952 366.216 272.552V341H350.28C352.648 336.904 354.6 333.32 356.136 330.248C357.736 327.176 359.016 323.784 359.976 320.072C360.936 316.36 361.416 311.848 361.416 306.536C361.416 303.464 360.648 300.648 359.112 298.088C357.576 295.464 355.496 293.384 352.872 291.848C350.248 290.312 347.4 289.544 344.328 289.544C341.192 289.544 338.312 290.312 335.688 291.848C333.128 293.32 331.08 295.368 329.544 297.992C328.008 300.616 327.24 303.464 327.24 306.536C327.24 311.848 327.72 316.36 328.68 320.072C329.64 323.784 330.92 327.208 332.52 330.344C334.12 333.416 336.136 336.968 338.568 341H301.32C303.688 336.968 305.672 333.416 307.272 330.344C308.872 327.208 310.152 323.784 311.112 320.072C312.072 316.36 312.552 311.848 312.552 306.536C312.552 303.464 311.784 300.648 310.248 298.088C308.712 295.464 306.632 293.384 304.008 291.848C301.384 290.312 298.536 289.544 295.464 289.544C292.328 289.544 289.448 290.312 286.824 291.848C284.264 293.32 282.216 295.368 280.68 297.992C279.144 300.616 278.376 303.464 278.376 306.536C278.376 311.848 278.856 316.36 279.816 320.072C280.776 323.784 282.056 327.208 283.656 330.344C285.256 333.416 287.24 336.968 289.608 341H273.576V272.552ZM370.045 272.552C370.045 270.952 370.429 269.48 371.197 268.136C372.029 266.728 373.117 265.64 374.461 264.872C375.869 264.04 377.373 263.624 378.973 263.624H404.893C406.493 263.624 407.965 264.04 409.309 264.872C410.717 265.64 411.805 266.728 412.573 268.136C413.405 269.48 413.821 270.952 413.821 272.552V319.208C413.821 319.656 414.013 320.072 414.397 320.456C414.781 320.84 415.229 321.032 415.741 321.032H417.085C417.533 321.032 417.949 320.84 418.333 320.456C418.717 320.072 418.909 319.656 418.909 319.208V272.552C418.909 270.952 419.293 269.48 420.061 268.136C420.893 266.728 421.981 265.64 423.325 264.872C424.733 264.04 426.269 263.624 427.933 263.624H453.757C455.357 263.624 456.829 264.04 458.173 264.872C459.581 265.64 460.669 266.728 461.437 268.136C462.269 269.48 462.685 270.952 462.685 272.552V341H446.749C449.117 336.904 451.069 333.32 452.605 330.248C454.205 327.176 455.485 323.784 456.445 320.072C457.405 316.36 457.885 311.848 457.885 306.536C457.885 303.464 457.117 300.648 455.581 298.088C454.045 295.464 451.965 293.384 449.341 291.848C446.717 290.312 443.869 289.544 440.797 289.544C437.661 289.544 434.781 290.312 432.157 291.848C429.597 293.32 427.549 295.368 426.013 297.992C424.477 300.616 423.709 303.464 423.709 306.536C423.709 311.848 424.189 316.36 425.149 320.072C426.109 323.784 427.389 327.208 428.989 330.344C430.589 333.416 432.605 336.968 435.037 341H397.789C400.157 336.968 402.141 333.416 403.741 330.344C405.341 327.208 406.621 323.784 407.581 320.072C408.541 316.36 409.021 311.848 409.021 306.536C409.021 303.464 408.253 300.648 406.717 298.088C405.181 295.464 403.101 293.384 400.477 291.848C397.853 290.312 395.005 289.544 391.933 289.544C388.797 289.544 385.917 290.312 383.293 291.848C380.733 293.32 378.685 295.368 377.149 297.992C375.613 300.616 374.845 303.464 374.845 306.536C374.845 311.848 375.325 316.36 376.285 320.072C377.245 323.784 378.525 327.208 380.125 330.344C381.725 333.416 383.709 336.968 386.077 341H370.045V272.552ZM475.826 341C474.162 341 472.594 340.584 471.122 339.752C469.714 338.92 468.594 337.8 467.762 336.392C466.93 334.92 466.514 333.352 466.514 331.688V308.264C466.514 306.6 466.93 305.064 467.762 303.656C468.594 302.184 469.714 301.032 471.122 300.2C472.53 299.368 474.098 298.952 475.826 298.952H504.434C504.626 298.952 504.754 298.888 504.818 298.76C504.946 298.632 505.01 298.504 505.01 298.376V297.704C505.01 297.448 504.946 297.288 504.818 297.224C504.754 297.096 504.626 297.032 504.434 297.032H476.21C474.29 297.032 472.69 296.392 471.41 295.112C470.13 293.768 469.49 292.168 469.49 290.312V270.92C469.49 269.064 470.13 267.496 471.41 266.216C472.69 264.872 474.29 264.2 476.21 264.2H510.386V275.912C510.386 276.808 510.066 277.576 509.426 278.216C508.786 278.856 508.018 279.176 507.122 279.176H502.226C501.33 279.176 500.562 278.856 499.922 278.216C499.282 277.576 498.962 276.808 498.962 275.912V267.848H497.042V280.136H504.53C506.386 280.136 508.018 280.872 509.426 282.344C510.898 283.752 511.634 285.384 511.634 287.24V312.296C511.634 313.704 511.25 315.048 510.482 316.328C509.778 317.544 508.786 318.536 507.506 319.304C506.29 320.008 504.946 320.36 503.474 320.36H497.042V337.736H498.962V324.968C498.962 324.072 499.282 323.304 499.922 322.664C500.562 321.96 501.33 321.608 502.226 321.608H507.89C508.786 321.608 509.554 321.96 510.194 322.664C510.898 323.304 511.25 324.072 511.25 324.968V341H475.826ZM513.858 264.2H567.426C569.602 264.2 571.458 265 572.994 266.6C574.594 268.136 575.394 269.992 575.394 272.168V294.824C575.394 297.064 574.594 298.952 572.994 300.488C571.458 302.024 569.602 302.792 567.426 302.792H521.442V304.712H579.042C582.114 304.712 584.866 305.384 587.298 306.728C589.73 308.072 591.618 309.96 592.962 312.392C594.306 314.76 594.978 317.48 594.978 320.552V341H565.41V337.352C567.586 337.224 569.634 336.552 571.554 335.336C573.474 334.12 574.978 332.52 576.066 330.536C577.218 328.488 577.794 326.28 577.794 323.912C577.794 321.288 577.154 318.888 575.874 316.712C574.594 314.536 572.834 312.808 570.594 311.528C568.418 310.184 566.05 309.512 563.49 309.512H548.514C545.954 309.512 543.554 310.184 541.314 311.528C539.138 312.808 537.41 314.568 536.13 316.808C534.85 318.984 534.21 321.352 534.21 323.912C534.21 326.28 534.754 328.488 535.842 330.536C536.994 332.52 538.498 334.152 540.354 335.432C542.274 336.648 544.354 337.288 546.594 337.352V341H513.858V264.2ZM555.138 298.376C557.122 298.376 558.946 297.736 560.61 296.456C562.338 295.176 563.682 293.448 564.642 291.272C565.666 289.032 566.177 286.568 566.177 283.88C566.177 281.256 565.666 278.792 564.642 276.488C563.682 274.184 562.338 272.36 560.61 271.016C558.882 269.672 557.058 269 555.138 269C553.218 269 551.394 269.672 549.666 271.016C547.938 272.36 546.562 274.184 545.538 276.488C544.578 278.792 544.098 281.256 544.098 283.88C544.098 286.568 544.578 289.032 545.538 291.272C546.562 293.448 547.906 295.176 549.57 296.456C551.298 297.736 553.154 298.376 555.138 298.376Z"
        fill="black" style="mix-blend-mode:overlay" />
    <path
        d="M13.488 440.288C12.464 440.288 11.504 440.032 10.608 439.52C9.776 439.008 9.104 438.368 8.592 437.6C8.144 436.768 7.92 435.84 7.92 434.816V415.232C7.92 410.688 9.04 406.528 11.28 402.752C13.52 398.912 16.528 395.872 20.304 393.632C24.144 391.392 28.368 390.272 32.976 390.272H62.832C65.264 390.272 67.216 389.568 68.688 388.16C70.16 386.752 71.056 385.056 71.376 383.072C71.76 381.088 71.6 379.328 70.896 377.792C70.256 376.192 69.2 374.976 67.728 374.144C66.256 373.248 64.592 372.8 62.736 372.8C60.88 372.8 59.056 373.28 57.264 374.24L36.336 384.608V363.2H65.52C66.8 363.2 67.856 363.456 68.688 363.968C69.52 364.48 70.224 365.312 70.8 366.464L102.672 434.624C103.12 435.712 103.28 436.672 103.152 437.504C103.088 438.272 102.768 438.88 102.192 439.328C101.616 439.776 100.944 440 100.176 440H66.672C65.584 440 64.72 439.648 64.08 438.944C63.504 438.176 63.536 437.12 64.176 435.776L69.264 425.984L70.992 422.528C73.232 418.176 74.8 414.848 75.696 412.544C76.656 410.176 77.136 408 77.136 406.016C77.136 403.328 76.304 401.088 74.64 399.296C73.04 397.504 70.768 396.608 67.824 396.608C65.264 396.608 63.056 397.536 61.2 399.392C59.408 401.184 58.512 403.392 58.512 406.016V434.816C58.512 435.776 58.256 436.672 57.744 437.504C57.232 438.336 56.56 439.008 55.728 439.52C54.896 440.032 54 440.288 53.04 440.288H13.488ZM33.36 431.936C36.496 431.936 39.312 431.232 41.808 429.824C44.368 428.352 46.384 426.336 47.856 423.776C49.328 421.216 50.064 418.336 50.064 415.136C50.064 412 49.328 409.184 47.856 406.688C46.384 404.128 44.368 402.112 41.808 400.64C39.312 399.168 36.496 398.432 33.36 398.432C30.224 398.432 27.376 399.168 24.816 400.64C22.256 402.112 20.24 404.128 18.768 406.688C17.296 409.184 16.56 412 16.56 415.136C16.56 418.336 17.296 421.216 18.768 423.776C20.24 426.336 22.224 428.352 24.72 429.824C27.28 431.232 30.16 431.936 33.36 431.936ZM106.17 363.2H161.37L137.946 429.632H161.754L161.658 368.768C161.658 368.064 161.914 367.456 162.426 366.944C162.938 366.368 163.578 366.08 164.346 366.08H177.882C178.65 366.08 179.29 366.368 179.802 366.944C180.314 367.456 180.57 368.064 180.57 368.768V429.632H204.474L180.954 363.2H220.698V440H176.25V408.8C176.25 408.416 176.122 408.096 175.866 407.84C175.61 407.584 175.29 407.456 174.906 407.456H172.89C172.57 407.456 172.25 407.584 171.93 407.84C171.674 408.096 171.546 408.416 171.546 408.8V440H106.17V363.2ZM229.113 440.288C228.089 440.288 227.129 440.032 226.233 439.52C225.401 439.008 224.729 438.368 224.217 437.6C223.769 436.768 223.545 435.84 223.545 434.816V415.232C223.545 410.688 224.665 406.528 226.905 402.752C229.145 398.912 232.153 395.872 235.929 393.632C239.769 391.392 243.993 390.272 248.601 390.272H278.457C280.889 390.272 282.841 389.568 284.313 388.16C285.785 386.752 286.681 385.056 287.001 383.072C287.385 381.088 287.225 379.328 286.521 377.792C285.881 376.192 284.825 374.976 283.353 374.144C281.881 373.248 280.217 372.8 278.361 372.8C276.505 372.8 274.681 373.28 272.889 374.24L251.961 384.608V363.2H281.145C282.425 363.2 283.481 363.456 284.313 363.968C285.145 364.48 285.849 365.312 286.425 366.464L318.297 434.624C318.745 435.712 318.905 436.672 318.777 437.504C318.713 438.272 318.393 438.88 317.817 439.328C317.241 439.776 316.569 440 315.801 440H282.297C281.209 440 280.345 439.648 279.705 438.944C279.129 438.176 279.161 437.12 279.801 435.776L284.889 425.984L286.617 422.528C288.857 418.176 290.425 414.848 291.321 412.544C292.281 410.176 292.761 408 292.761 406.016C292.761 403.328 291.929 401.088 290.265 399.296C288.665 397.504 286.393 396.608 283.449 396.608C280.889 396.608 278.681 397.536 276.825 399.392C275.033 401.184 274.137 403.392 274.137 406.016V434.816C274.137 435.776 273.881 436.672 273.369 437.504C272.857 438.336 272.185 439.008 271.353 439.52C270.521 440.032 269.625 440.288 268.665 440.288H229.113ZM248.985 431.936C252.121 431.936 254.937 431.232 257.433 429.824C259.993 428.352 262.009 426.336 263.481 423.776C264.953 421.216 265.689 418.336 265.689 415.136C265.689 412 264.953 409.184 263.481 406.688C262.009 404.128 259.993 402.112 257.433 400.64C254.937 399.168 252.121 398.432 248.985 398.432C245.849 398.432 243.001 399.168 240.441 400.64C237.881 402.112 235.865 404.128 234.393 406.688C232.921 409.184 232.185 412 232.185 415.136C232.185 418.336 232.921 421.216 234.393 423.776C235.865 426.336 237.849 428.352 240.345 429.824C242.905 431.232 245.785 431.936 248.985 431.936ZM321.795 363.2H391.107C392.067 363.2 392.899 363.552 393.603 364.256C394.307 364.96 394.659 365.792 394.659 366.752V412.352C394.659 413.376 394.307 414.24 393.603 414.944C392.899 415.584 392.067 415.904 391.107 415.904H329.091V417.824H400.515C401.923 417.824 403.171 418.144 404.259 418.784C405.347 419.36 406.179 420.192 406.755 421.28C407.395 422.304 407.715 423.52 407.715 424.928V440H373.635V438.368C374.659 438.176 375.587 437.792 376.419 437.216C377.251 436.576 377.923 435.776 378.435 434.816C378.947 433.856 379.203 432.8 379.203 431.648C379.203 429.984 378.787 428.48 377.955 427.136C377.187 425.728 376.099 424.64 374.691 423.872C373.347 423.04 371.875 422.624 370.275 422.624H363.555C361.955 422.624 360.451 423.04 359.043 423.872C357.699 424.704 356.611 425.824 355.779 427.232C355.011 428.576 354.627 430.048 354.627 431.648C354.627 432.8 354.883 433.856 355.395 434.816C355.907 435.776 356.579 436.576 357.411 437.216C358.243 437.856 359.171 438.24 360.195 438.368V440H321.795V363.2ZM366.243 411.872C368.931 411.872 371.395 410.944 373.635 409.088C375.875 407.232 377.667 404.672 379.011 401.408C380.355 398.144 381.027 394.464 381.027 390.368C381.027 386.336 380.355 382.624 379.011 379.232C377.667 375.776 375.843 373.056 373.539 371.072C371.299 369.024 368.867 368 366.243 368C363.619 368 361.155 369.024 358.851 371.072C356.611 373.056 354.819 375.776 353.475 379.232C352.131 382.624 351.459 386.336 351.459 390.368C351.459 394.464 352.131 398.144 353.475 401.408C354.819 404.672 356.611 407.232 358.851 409.088C361.091 410.944 363.555 411.872 366.243 411.872ZM410.295 404L431.031 426.272V376.928L410.295 399.2V363.2H464.823C466.807 363.2 468.631 363.712 470.295 364.736C471.959 365.696 473.271 367.008 474.231 368.672C475.255 370.336 475.767 372.192 475.767 374.24V428.864C475.767 430.848 475.255 432.704 474.231 434.432C473.271 436.16 471.959 437.536 470.295 438.56C468.631 439.52 466.807 440 464.823 440H410.295V404ZM453.399 435.104C456.599 435.104 459.543 433.6 462.231 430.592C464.919 427.584 467.031 423.52 468.567 418.4C470.167 413.28 470.967 407.68 470.967 401.6C470.967 395.456 470.167 389.824 468.567 384.704C467.031 379.584 464.919 375.52 462.231 372.512C459.543 369.44 456.599 367.904 453.399 367.904C450.263 367.904 447.319 369.408 444.567 372.416C441.879 375.424 439.735 379.52 438.135 384.704C436.599 389.824 435.831 395.424 435.831 401.504C435.831 407.648 436.599 413.312 438.135 418.496C439.735 423.616 441.879 427.68 444.567 430.688C447.255 433.632 450.199 435.104 453.399 435.104ZM499.254 371.84V381.44H489.654V371.84H499.254ZM599.67 362.24V371.84H499.254V362.24H599.67ZM489.654 381.44V396.32H480.054V381.44H489.654ZM499.254 396.32V405.92H489.654V396.32H499.254ZM489.654 405.92V420.8H480.054V405.92H489.654ZM499.254 420.8V430.4H489.654V420.8H499.254ZM599.67 430.4V440H499.254V430.4H599.67ZM595.062 405.92V414.56H499.254V405.92H595.062ZM599.67 430.4V420.8H609.27V430.4H599.67ZM609.27 420.8V405.92H618.87V420.8H609.27ZM599.67 405.92V396.32H609.27V405.92H599.67ZM609.27 396.32V381.44H618.87V396.32H609.27ZM599.67 381.44V371.84H609.27V381.44H599.67ZM503.958 396.32V387.68H599.67V396.32H503.958Z"
        fill="black" style="mix-blend-mode:overlay" />
    <g clip-path="url(#clip0_92_276)">
        <path
            d="M228.337 501.707H232.364V504.254H228.337V510.1C228.337 510.748 228.506 511.245 228.846 511.592C229.186 511.94 229.679 512.114 230.326 512.114H232.364V515.074H230.472C229.226 515.074 228.207 514.916 227.415 514.6C226.622 514.285 226.036 513.747 225.656 512.987C225.276 512.227 225.086 511.201 225.086 509.906V504.254H223V501.707H225.086V498.019H228.337V501.707ZM241.922 501.294H241.777C240.757 501.294 239.912 501.537 239.241 502.022C238.613 502.476 238.136 503.13 237.798 503.967V497.194H234.329V514.904H237.798V507.286C237.798 506.429 238.044 505.738 238.538 505.212C239.031 504.687 239.682 504.424 240.491 504.424C241.251 504.424 241.865 504.663 242.335 505.139C242.803 505.616 243.038 506.259 243.038 507.068V514.904H246.507V507.384C246.507 505.411 246.119 503.902 245.343 502.859C244.567 501.816 243.426 501.294 241.922 501.294ZM260.771 504.654C261.272 505.665 261.523 506.752 261.523 507.917V509.178H251.656C251.713 509.659 251.817 510.103 251.977 510.501C252.228 511.123 252.616 511.613 253.142 511.968C253.667 512.324 254.334 512.502 255.143 512.502C255.952 512.502 256.606 512.341 257.108 512.017C257.609 511.694 257.933 511.306 258.078 510.853H261.281C261.087 511.742 260.714 512.531 260.164 513.218C259.615 513.905 258.915 514.435 258.066 514.807C257.218 515.179 256.243 515.365 255.143 515.365C254.011 515.365 253.02 515.171 252.171 514.783C251.322 514.394 250.615 513.873 250.048 513.218C249.482 512.563 249.058 511.831 248.775 511.022C248.491 510.214 248.35 509.389 248.35 508.548V508.063C248.35 507.189 248.491 506.349 248.775 505.54C249.058 504.731 249.479 504.003 250.036 503.356C250.594 502.71 251.289 502.196 252.123 501.816C252.956 501.436 253.914 501.245 254.997 501.245C256.42 501.245 257.614 501.561 258.576 502.192C259.538 502.823 260.27 503.644 260.771 504.654ZM251.989 506.061C251.863 506.365 251.769 506.701 251.704 507.068H258.197C258.138 506.665 258.044 506.294 257.909 505.964C257.666 505.374 257.302 504.917 256.817 504.594C256.332 504.27 255.725 504.108 254.997 504.108C254.27 504.108 253.651 504.278 253.142 504.618C252.632 504.958 252.248 505.439 251.989 506.061ZM278.262 505.249C277.308 504.812 276.192 504.537 274.914 504.424L273.41 504.303C272.537 504.221 271.906 503.979 271.518 503.574C271.13 503.171 270.936 502.701 270.936 502.168C270.936 501.731 271.045 501.327 271.263 500.954C271.482 500.583 271.809 500.284 272.246 500.057C272.682 499.831 273.232 499.717 273.895 499.717C274.59 499.717 275.165 499.843 275.618 500.094C276.07 500.344 276.41 500.672 276.636 501.076C276.863 501.48 276.976 501.917 276.976 502.386H280.445C280.445 501.238 280.182 500.235 279.657 499.378C279.131 498.52 278.379 497.858 277.401 497.388C276.422 496.92 275.254 496.685 273.895 496.685C272.601 496.685 271.473 496.907 270.511 497.352C269.549 497.797 268.797 498.428 268.255 499.244C267.713 500.061 267.442 501.036 267.442 502.168C267.442 503.688 267.952 504.909 268.971 505.831C269.989 506.752 271.356 507.286 273.07 507.432L274.575 507.553C275.69 507.65 276.511 507.885 277.037 508.257C277.562 508.629 277.825 509.122 277.825 509.736C277.825 510.221 277.688 510.659 277.413 511.047C277.138 511.435 276.725 511.746 276.176 511.981C275.625 512.215 274.938 512.332 274.114 512.332C273.192 512.332 272.452 512.199 271.894 511.932C271.336 511.665 270.927 511.317 270.668 510.889C270.41 510.461 270.28 510.003 270.28 509.518H266.811C266.811 510.65 267.094 511.657 267.661 512.539C268.227 513.42 269.051 514.112 270.135 514.613C271.218 515.114 272.545 515.365 274.114 515.365C275.585 515.365 276.859 515.13 277.935 514.661C279.01 514.193 279.839 513.533 280.421 512.684C281.003 511.835 281.294 510.853 281.294 509.736C281.294 508.669 281.028 507.764 280.494 507.019C279.96 506.276 279.216 505.685 278.262 505.249ZM291.484 509.494C291.484 510.318 291.245 510.974 290.767 511.459C290.29 511.944 289.664 512.187 288.888 512.187C288.143 512.187 287.549 511.957 287.104 511.495C286.66 511.034 286.438 510.408 286.438 509.615V501.707H282.969V509.348C282.969 511.338 283.38 512.83 284.206 513.824C285.03 514.819 286.211 515.316 287.747 515.316H287.893C288.912 515.316 289.757 515.094 290.428 514.649C291.099 514.204 291.608 513.537 291.956 512.648C292.057 512.389 292.14 512.104 292.211 511.807V514.904H294.953V501.707H291.484V509.494ZM311.558 505.382C311.841 506.199 311.983 507.084 311.983 508.039V508.548C311.983 509.502 311.846 510.392 311.57 511.216C311.295 512.041 310.887 512.761 310.345 513.375C309.804 513.99 309.157 514.471 308.405 514.819C307.652 515.167 306.799 515.34 305.845 515.34C304.858 515.34 303.956 515.135 303.14 514.722C302.445 514.371 301.872 513.846 301.406 513.168V519.756H297.937V501.707H300.678V505.034C300.797 504.67 300.932 504.323 301.102 504.011C301.595 503.106 302.255 502.427 303.08 501.974C303.905 501.521 304.826 501.294 305.845 501.294C306.783 501.294 307.629 501.468 308.38 501.816C309.132 502.164 309.779 502.64 310.321 503.247C310.863 503.854 311.275 504.566 311.558 505.382ZM308.514 508.281C308.514 507.472 308.364 506.765 308.065 506.158C307.765 505.552 307.349 505.079 306.815 504.739C306.282 504.4 305.659 504.229 304.948 504.229C304.301 504.229 303.701 504.371 303.152 504.654C302.603 504.937 302.158 505.357 301.818 505.916C301.478 506.474 301.309 507.141 301.309 507.917V508.863C301.309 509.607 301.482 510.246 301.83 510.78C302.177 511.313 302.631 511.722 303.189 512.005C303.747 512.288 304.333 512.429 304.948 512.429C305.659 512.429 306.282 512.252 306.815 511.896C307.349 511.54 307.765 511.051 308.065 510.428C308.364 509.806 308.514 509.09 308.514 508.281ZM325.592 504.654C326.093 505.665 326.344 506.752 326.344 507.917V509.178H316.477C316.534 509.659 316.637 510.103 316.798 510.501C317.049 511.123 317.437 511.613 317.962 511.968C318.488 512.324 319.155 512.502 319.964 512.502C320.773 512.502 321.427 512.341 321.929 512.017C322.43 511.694 322.754 511.306 322.899 510.853H326.101C325.907 511.742 325.535 512.531 324.985 513.218C324.436 513.905 323.736 514.435 322.887 514.807C322.038 515.179 321.064 515.365 319.964 515.365C318.832 515.365 317.841 515.171 316.992 514.783C316.143 514.394 315.435 513.873 314.869 513.218C314.303 512.563 313.878 511.831 313.595 511.022C313.312 510.214 313.171 509.389 313.171 508.548V508.063C313.171 507.189 313.312 506.349 313.595 505.54C313.878 504.731 314.299 504.003 314.857 503.356C315.415 502.71 316.11 502.196 316.944 501.816C317.776 501.436 318.735 501.245 319.818 501.245C321.241 501.245 322.434 501.561 323.397 502.192C324.358 502.823 325.09 503.644 325.592 504.654ZM316.81 506.061C316.684 506.365 316.589 506.701 316.525 507.068H323.018C322.958 506.665 322.865 506.294 322.729 505.964C322.487 505.374 322.123 504.917 321.638 504.594C321.153 504.27 320.546 504.108 319.818 504.108C319.09 504.108 318.472 504.278 317.962 504.618C317.452 504.958 317.069 505.439 316.81 506.061ZM332.142 503.017C331.529 503.764 331.15 504.769 331.001 506.027V501.707H328.26V514.904H331.73V508.063C331.73 506.931 332.036 506.065 332.651 505.467C333.266 504.868 334.131 504.569 335.247 504.569H336.193V501.537H335.684C334.131 501.537 332.951 502.031 332.142 503.017ZM345.775 511.216C345.533 511.572 345.206 511.856 344.793 512.065C344.381 512.276 343.884 512.381 343.301 512.381C342.541 512.381 341.922 512.207 341.446 511.859C340.968 511.511 340.617 511.026 340.39 510.404C340.163 509.781 340.05 509.09 340.05 508.33C340.05 507.521 340.172 506.813 340.415 506.207C340.657 505.6 341.017 505.119 341.494 504.764C341.971 504.408 342.565 504.229 343.277 504.229C344.134 504.229 344.797 504.456 345.266 504.909C345.735 505.362 346.01 505.92 346.091 506.583H349.487C349.423 505.515 349.115 504.581 348.565 503.781C348.015 502.98 347.288 502.358 346.382 501.913C345.477 501.468 344.441 501.245 343.277 501.245C342.177 501.245 341.211 501.436 340.378 501.816C339.545 502.196 338.845 502.705 338.28 503.344C337.713 503.983 337.288 504.715 337.006 505.54C336.723 506.364 336.581 507.222 336.581 508.111V508.572C336.581 509.413 336.719 510.238 336.994 511.047C337.268 511.856 337.685 512.587 338.243 513.242C338.801 513.897 339.501 514.415 340.341 514.794C341.182 515.175 342.169 515.365 343.301 515.365C344.482 515.365 345.533 515.138 346.455 514.686C347.377 514.233 348.116 513.602 348.675 512.793C349.233 511.985 349.536 511.047 349.584 509.979H346.212C346.164 510.448 346.018 510.861 345.775 511.216ZM358.997 501.294H358.851C357.832 501.294 356.987 501.537 356.316 502.022C355.687 502.476 355.211 503.129 354.873 503.966V497.194H351.404V514.904H354.873V507.286C354.873 506.429 355.119 505.738 355.613 505.212C356.106 504.687 356.757 504.424 357.566 504.424C358.325 504.424 358.94 504.663 359.409 505.139C359.878 505.616 360.113 506.259 360.113 507.068V514.904H363.582V507.384C363.582 505.411 363.194 503.902 362.418 502.859C361.641 501.816 360.501 501.294 358.997 501.294ZM376.33 503.757C376.791 504.525 377.022 505.524 377.022 506.752V514.904H374.28V512.36C374.174 512.702 374.043 513.019 373.88 513.302C373.516 513.934 373.014 514.415 372.376 514.746C371.736 515.078 370.957 515.243 370.035 515.243C369.081 515.243 368.244 515.074 367.524 514.734C366.804 514.394 366.246 513.909 365.85 513.278C365.454 512.648 365.256 511.888 365.256 510.998C365.256 510.027 365.494 509.235 365.971 508.621C366.448 508.006 367.123 507.545 367.996 507.238C368.87 506.931 369.889 506.777 371.054 506.777H373.698V506.68C373.698 505.936 373.516 505.378 373.152 505.006C372.788 504.634 372.226 504.448 371.466 504.448C371.077 504.448 370.6 504.456 370.035 504.472C369.469 504.488 368.89 504.509 368.3 504.533C367.71 504.557 367.188 504.585 366.735 504.618V501.683C367.107 501.65 367.527 501.618 367.996 501.586C368.466 501.553 368.955 501.533 369.464 501.525C369.974 501.517 370.447 501.513 370.883 501.513C372.242 501.513 373.374 501.694 374.28 502.058C375.186 502.422 375.869 502.988 376.33 503.757ZM373.261 511.677C373.52 511.273 373.665 510.723 373.698 510.027V508.815H371.029C370.269 508.815 369.686 509.001 369.283 509.373C368.878 509.745 368.676 510.23 368.676 510.828C368.676 511.411 368.878 511.884 369.283 512.248C369.686 512.611 370.269 512.793 371.029 512.793C371.482 512.793 371.903 512.708 372.291 512.539C372.679 512.369 373.002 512.082 373.261 511.677ZM378.525 501.707V504.303H380.369V514.904H383.838V501.707H378.525ZM381.655 500.178C382.317 500.178 382.811 500.004 383.134 499.656C383.458 499.309 383.619 498.861 383.619 498.311C383.619 497.761 383.458 497.312 383.134 496.964C382.811 496.616 382.317 496.442 381.655 496.442C380.975 496.442 380.474 496.616 380.15 496.964C379.827 497.312 379.665 497.761 379.665 498.311C379.665 498.861 379.827 499.309 380.15 499.656C380.474 500.004 380.975 500.178 381.655 500.178ZM397.787 502.811C396.978 501.8 395.789 501.294 394.221 501.294H394.076C393.024 501.294 392.147 501.521 391.443 501.974C390.74 502.427 390.21 503.106 389.854 504.011C389.735 504.316 389.643 504.653 389.563 505.005V501.707H386.822V514.904H390.291V507.165C390.291 506.34 390.537 505.677 391.031 505.176C391.524 504.674 392.175 504.424 392.984 504.424C393.776 504.424 394.398 504.666 394.852 505.152C395.304 505.637 395.531 506.276 395.531 507.068V514.904H399V507.359C399 505.338 398.596 503.822 397.787 502.811ZM310.277 479.086H313.369V487.956H315.383V479.086H318.476V477.306H310.277V479.086ZM336.479 480.501C336.712 481.143 336.829 481.79 336.829 482.442V482.763C336.829 483.356 336.715 483.971 336.486 484.608C336.257 485.245 335.914 485.839 335.457 486.388C335 486.938 334.419 487.382 333.714 487.723C333.009 488.063 332.179 488.233 331.226 488.233C330.264 488.233 329.43 488.063 328.724 487.723C328.019 487.382 327.435 486.938 326.974 486.388C326.512 485.839 326.169 485.245 325.945 484.608C325.721 483.971 325.61 483.356 325.61 482.763V482.442C325.61 481.79 325.726 481.143 325.96 480.501C326.193 479.859 326.544 479.273 327.01 478.743C327.477 478.214 328.061 477.79 328.761 477.474C329.461 477.158 330.283 477 331.226 477C332.16 477 332.975 477.158 333.67 477.474C334.366 477.79 334.949 478.214 335.421 478.743C335.893 479.273 336.245 479.859 336.479 480.501ZM334.786 482.617C334.786 482.082 334.704 481.588 334.538 481.136C334.373 480.684 334.134 480.287 333.823 479.947C333.512 479.606 333.138 479.344 332.7 479.159C332.262 478.974 331.771 478.882 331.226 478.882C330.672 478.882 330.174 478.974 329.731 479.159C329.289 479.344 328.912 479.606 328.6 479.947C328.289 480.287 328.053 480.684 327.893 481.136C327.733 481.588 327.652 482.082 327.652 482.617C327.652 483.122 327.733 483.599 327.893 484.046C328.053 484.494 328.289 484.892 328.6 485.243C328.912 485.593 329.289 485.865 329.731 486.059C330.174 486.254 330.672 486.352 331.226 486.352C331.771 486.352 332.265 486.254 332.707 486.059C333.15 485.865 333.527 485.593 333.838 485.243C334.149 484.892 334.385 484.494 334.546 484.046C334.706 483.599 334.786 483.122 334.786 482.617ZM348.017 486.278H347.813L343.262 477.306H339.95V487.956H341.832V478.984H342.021L346.588 487.956H349.914V477.306H348.017V486.278ZM279.519 483.237C279.835 483.631 279.993 484.163 279.993 484.834V485.039C279.993 485.671 279.855 486.211 279.578 486.658C279.3 487.105 278.889 487.446 278.344 487.679C277.8 487.913 277.124 488.029 276.317 488.029H272.086V477.234H275.879C277.085 477.234 277.999 477.487 278.622 477.992C279.244 478.498 279.556 479.223 279.556 480.166V480.37C279.556 481.032 279.397 481.559 279.081 481.953C278.911 482.165 278.705 482.341 278.467 482.487C278.9 482.66 279.254 482.907 279.519 483.237ZM274.07 478.867V481.8H276.069C276.584 481.8 276.961 481.666 277.199 481.399C277.438 481.131 277.557 480.779 277.557 480.341C277.557 479.894 277.438 479.536 277.199 479.268C276.961 479.001 276.584 478.867 276.069 478.867H274.07ZM277.995 484.878C277.995 484.402 277.866 484.032 277.608 483.769C277.35 483.507 276.968 483.375 276.463 483.375H274.07V486.395H276.463C276.959 486.395 277.338 486.262 277.601 485.994C277.863 485.726 277.995 485.354 277.995 484.878ZM290.248 483.784C290.248 484.309 290.151 484.764 289.957 485.148C289.762 485.532 289.475 485.829 289.096 486.038C288.717 486.247 288.255 486.352 287.71 486.352C287.156 486.352 286.689 486.247 286.309 486.038C285.93 485.829 285.643 485.53 285.448 485.14C285.254 484.752 285.157 484.3 285.157 483.784V477.306H283.129V483.667C283.129 484.591 283.306 485.393 283.662 486.075C284.016 486.755 284.532 487.285 285.208 487.665C285.884 488.044 286.718 488.233 287.71 488.233C288.702 488.233 289.536 488.044 290.212 487.665C290.888 487.285 291.399 486.755 291.744 486.075C292.089 485.393 292.262 484.591 292.262 483.667V477.306H290.248V483.784ZM296.215 487.956H298.243V477.306H296.215V487.956ZM304.939 477.306H302.911V487.956H309.257V486.176H304.939V477.306Z"
            fill="black" style="mix-blend-mode:overlay" />
    </g>
    <defs>
        <linearGradient id="paint0_linear_92_276" x1="478" y1="60.6" x2="148" y2="552.6" gradientUnits="userSpaceOnUse">
            <stop stop-color="#FF8744" />
            <stop offset="1" stop-color="#FFBD98" />
        </linearGradient>
        <clipPath id="clip0_92_276">
            <rect width="176" height="42.7559" fill="white" transform="translate(223 477)" />
        </clipPath>
    </defs>
</svg>