<svg width="129" height="28" viewBox="0 0 129 28" fill="none" xmlns="http://www.w3.org/2000/svg">
    <circle cx="14" cy="14" r="14" fill="url(#paint0_linear_108_319)" />
    <path
        d="M36 7.25447C36 5.99557 36.3441 4.91337 37.0324 4.00784C37.7421 3.08024 38.7208 2.37349 39.9682 1.8876C41.2372 1.37962 42.7105 1.12564 44.3881 1.12564H53.3569C55.013 1.12564 56.4648 1.37962 57.7123 1.8876C58.9813 2.37349 59.9599 3.08024 60.6481 4.00784C61.3579 4.91337 61.7128 5.99557 61.7128 7.25447V21.8312C61.7128 23.0901 61.3579 24.1833 60.6481 25.1109C59.9599 26.0164 58.9813 26.7232 57.7123 27.2312C56.4648 27.717 55.013 27.96 53.3569 27.96H44.3881C42.7105 27.96 41.2372 27.717 39.9682 27.2312C38.7208 26.7232 37.7421 26.0164 37.0324 25.1109C36.3441 24.1833 36 23.0901 36 21.8312V7.25447ZM55.5185 23.9183C56.1637 23.9183 56.7552 23.7526 57.2929 23.4213C57.8306 23.068 58.2607 22.6152 58.5834 22.0631C58.9275 21.5109 59.0996 20.9035 59.0996 20.241V14.2778C59.0996 13.6152 58.9275 13.0078 58.5834 12.4557C58.2607 11.8815 57.8198 11.4397 57.2606 11.1305C56.7229 10.7993 56.1422 10.6336 55.5185 10.6336H42.1943C41.5706 10.6336 40.9791 10.7993 40.4199 11.1305C39.8607 11.4397 39.4198 11.8815 39.0971 12.4557C38.7745 13.0078 38.6132 13.6152 38.6132 14.2778V20.241C38.6132 20.9035 38.7745 21.5109 39.0971 22.0631C39.4198 22.6152 39.8499 23.068 40.3876 23.4213C40.9468 23.7526 41.5491 23.9183 42.1943 23.9183H55.5185Z"
        fill="#FF3F00" />
    <path
        d="M69.4214 4.27288V7.58576H66.1952V4.27288H69.4214ZM92.037 0.959991V4.27288H69.4214V0.959991H92.037ZM66.1952 7.58576V12.7207H62.969V7.58576H66.1952ZM69.4214 12.7207V16.0336H66.1952V12.7207H69.4214ZM66.1952 16.0336V21.1686H62.969V16.0336H66.1952ZM69.4214 21.1686V24.4815H66.1952V21.1686H69.4214ZM92.037 24.4815V27.7943H69.4214V24.4815H92.037ZM90.8433 16.0336V19.0152H69.4214V16.0336H90.8433ZM92.037 24.4815V21.1686H95.2632V24.4815H92.037ZM95.2632 21.1686V16.0336H98.4894V21.1686H95.2632ZM92.037 16.0336V12.7207H95.2632V16.0336H92.037ZM95.2632 12.7207V7.58576H98.4894V12.7207H95.2632ZM92.037 7.58576V4.27288H95.2632V7.58576H92.037ZM70.6473 12.7207V9.73913H92.037V12.7207H70.6473Z"
        fill="#FF3F00" />
    <path
        d="M103.285 27.96C102.618 27.96 102.016 27.8054 101.478 27.4962C100.941 27.1649 100.511 26.7342 100.188 26.2042C99.8868 25.652 99.7363 25.0447 99.7363 24.3821V20.0753C99.7363 18.6397 100.07 17.3256 100.736 16.133C101.425 14.9183 102.349 13.9686 103.511 13.2839C104.694 12.5772 105.995 12.2238 107.415 12.2238H115.932C116.599 12.2238 117.147 12.0361 117.577 11.6606C118.029 11.2851 118.319 10.8213 118.448 10.2692C118.599 9.69496 118.61 9.15386 118.48 8.64588C118.351 8.13791 118.093 7.74036 117.706 7.45324C117.319 7.14404 116.867 6.95631 116.351 6.89005C115.835 6.80171 115.308 6.84588 114.77 7.02257L107.447 9.27533V1.29128H115.48C115.996 1.29128 116.448 1.41275 116.835 1.6557C117.244 1.87656 117.577 2.24097 117.835 2.74895L128.74 25.3097C128.976 25.7956 129.052 26.2262 128.966 26.6017C128.901 26.9772 128.729 27.2753 128.449 27.4962C128.191 27.695 127.901 27.7943 127.578 27.7943H118.9C118.427 27.7943 118.04 27.6287 117.738 27.2974C117.437 26.9661 117.373 26.5355 117.545 26.0054L118.642 23.1232L119.029 22.0962C119.481 20.8373 119.803 19.8324 119.997 19.0815C120.212 18.3305 120.319 17.6238 120.319 16.9612C120.319 16.2324 120.094 15.625 119.642 15.1391C119.212 14.6532 118.62 14.4103 117.867 14.4103C117.201 14.4103 116.62 14.6643 116.125 15.1723C115.652 15.6582 115.416 16.2545 115.416 16.9612V24.3821C115.416 25.0226 115.254 25.6189 114.932 26.171C114.631 26.7232 114.211 27.1649 113.673 27.4962C113.136 27.8054 112.544 27.96 111.899 27.96H103.285ZM107.673 24.4815C108.468 24.4815 109.189 24.2937 109.834 23.9183C110.501 23.5207 111.017 22.9907 111.383 22.3281C111.77 21.6434 111.964 20.8815 111.964 20.0422C111.964 19.225 111.77 18.4851 111.383 17.8226C111.017 17.1379 110.501 16.6078 109.834 16.2324C109.189 15.8348 108.468 15.6361 107.673 15.6361C106.877 15.6361 106.146 15.8348 105.479 16.2324C104.812 16.6078 104.285 17.1379 103.898 17.8226C103.532 18.4851 103.35 19.225 103.35 20.0422C103.35 20.8815 103.532 21.6434 103.898 22.3281C104.285 22.9907 104.801 23.5207 105.447 23.9183C106.113 24.2937 106.855 24.4815 107.673 24.4815Z"
        fill="#FF3F00" />
    <defs>
        <linearGradient id="paint0_linear_108_319" x1="22.12" y1="2.828" x2="6.72" y2="25.788"
            gradientUnits="userSpaceOnUse">
            <stop stop-color="#FF8744" />
            <stop offset="1" stop-color="#FFBD98" />
        </linearGradient>
    </defs>
</svg>