<svg width="21" height="21" viewBox="0 0 21 21" fill="none" xmlns="http://www.w3.org/2000/svg">
    <path fill-rule="evenodd" clip-rule="evenodd"
        d="M14.9571 8.20711C14.5666 8.59763 13.9334 8.59763 13.5429 8.20711L10.25 4.91421L6.95711 8.20711C6.56658 8.59763 5.93342 8.59763 5.54289 8.20711C5.15237 7.81658 5.15237 7.18342 5.54289 6.79289L9.54289 2.79289C9.93342 2.40237 10.5666 2.40237 10.9571 2.79289L14.9571 6.79289C15.3476 7.18342 15.3476 7.81658 14.9571 8.20711Z"
        fill="black" />
    <path fill-rule="evenodd" clip-rule="evenodd"
        d="M5.54289 12.7929C5.93342 12.4024 6.56658 12.4024 6.95711 12.7929L10.25 16.0858L13.5429 12.7929C13.9334 12.4024 14.5666 12.4024 14.9571 12.7929C15.3476 13.1834 15.3476 13.8166 14.9571 14.2071L10.9571 18.2071C10.5666 18.5976 9.93342 18.5976 9.54289 18.2071L5.54289 14.2071C5.15237 13.8166 5.15237 13.1834 5.54289 12.7929Z"
        fill="black" />
</svg>